<svg xmlns="http://www.w3.org/2000/svg" width="475" height="242" viewBox="0 0 356.25 181.5" preserveAspectRatio="xMidYMid meet" version="1.2">
  <g style="fill:#ffffff;fill-opacity:1;">
    <g transform="translate(19.261937, 148.047983)">
      <path style="stroke:none" d="M 52.90625 -35.4375 L 40.796875 0 L 39.078125 0 L 27.546875 -33.0625 L 16.046875 0 L 14.28125 0 L 2.171875 -35.4375 L 4 -35.4375 L 15.1875 -2.484375 L 26.734375 -35.4375 L 28.40625 -35.4375 L 39.890625 -2.4375 L 51.1875 -35.4375 Z M 52.90625 -35.4375 "/>
    </g>
  </g>
  <g style="fill:#ffffff;fill-opacity:1;">
    <g transform="translate(74.343204, 148.047983)">
      <path style="stroke:none" d="M 18.015625 -26.484375 C 21.296875 -26.484375 23.878906 -25.523438 25.765625 -23.609375 C 27.660156 -21.703125 28.609375 -18.976562 28.609375 -15.4375 L 28.609375 0 L 26.9375 0 L 26.9375 -15.34375 C 26.9375 -18.445312 26.148438 -20.816406 24.578125 -22.453125 C 23.003906 -24.085938 20.769531 -24.90625 17.875 -24.90625 C 14.59375 -24.90625 12.007812 -23.929688 10.125 -21.984375 C 8.238281 -20.046875 7.296875 -17.441406 7.296875 -14.171875 L 7.296875 0 L 5.625 0 L 5.625 -37.5625 L 7.296875 -37.5625 L 7.296875 -20 C 8.171875 -22.019531 9.535156 -23.601562 11.390625 -24.75 C 13.242188 -25.90625 15.453125 -26.484375 18.015625 -26.484375 Z M 18.015625 -26.484375 "/>
    </g>
  </g>
  <g style="fill:#ffffff;fill-opacity:1;">
    <g transform="translate(108.262734, 148.047983)">
      <path style="stroke:none" d="M 14.21875 -26.484375 C 17.363281 -26.484375 19.769531 -25.671875 21.4375 -24.046875 C 23.113281 -22.421875 23.953125 -20.078125 23.953125 -17.015625 L 23.953125 0 L 22.328125 0 L 22.328125 -5.265625 C 21.484375 -3.578125 20.222656 -2.25 18.546875 -1.28125 C 16.878906 -0.320312 14.882812 0.15625 12.5625 0.15625 C 9.625 0.15625 7.316406 -0.515625 5.640625 -1.859375 C 3.972656 -3.210938 3.140625 -5.003906 3.140625 -7.234375 C 3.140625 -9.359375 3.894531 -11.085938 5.40625 -12.421875 C 6.925781 -13.753906 9.359375 -14.421875 12.703125 -14.421875 L 22.28125 -14.421875 L 22.28125 -17.015625 C 22.28125 -19.609375 21.59375 -21.578125 20.21875 -22.921875 C 18.851562 -24.273438 16.835938 -24.953125 14.171875 -24.953125 C 12.316406 -24.953125 10.578125 -24.628906 8.953125 -23.984375 C 7.335938 -23.347656 5.957031 -22.492188 4.8125 -21.421875 L 3.890625 -22.625 C 5.179688 -23.84375 6.726562 -24.789062 8.53125 -25.46875 C 10.332031 -26.144531 12.226562 -26.484375 14.21875 -26.484375 Z M 12.65625 -1.265625 C 17.382812 -1.265625 20.59375 -3.375 22.28125 -7.59375 L 22.28125 -13.0625 L 12.703125 -13.0625 C 9.972656 -13.0625 7.972656 -12.546875 6.703125 -11.515625 C 5.441406 -10.484375 4.8125 -9.09375 4.8125 -7.34375 C 4.8125 -5.445312 5.507812 -3.957031 6.90625 -2.875 C 8.3125 -1.800781 10.226562 -1.265625 12.65625 -1.265625 Z M 12.65625 -1.265625 "/>
    </g>
  </g>
  <g style="fill:#ffffff;fill-opacity:1;">
    <g transform="translate(137.524659, 148.047983)">
      <path style="stroke:none" d="M 5.625 -37.5625 L 7.296875 -37.5625 L 7.296875 0 L 5.625 0 Z M 5.625 -37.5625 "/>
    </g>
  </g>
  <g style="fill:#ffffff;fill-opacity:1;">
    <g transform="translate(150.434331, 148.047983)">
      <path style="stroke:none" d="M 27.28125 -12.90625 L 4.25 -12.90625 C 4.28125 -10.675781 4.800781 -8.679688 5.8125 -6.921875 C 6.832031 -5.171875 8.226562 -3.804688 10 -2.828125 C 11.769531 -1.847656 13.753906 -1.359375 15.953125 -1.359375 C 17.734375 -1.359375 19.382812 -1.6875 20.90625 -2.34375 C 22.425781 -3.007812 23.675781 -3.984375 24.65625 -5.265625 L 25.71875 -4.15625 C 24.539062 -2.769531 23.109375 -1.703125 21.421875 -0.953125 C 19.734375 -0.210938 17.910156 0.15625 15.953125 0.15625 C 13.378906 0.15625 11.085938 -0.40625 9.078125 -1.53125 C 7.078125 -2.664062 5.5 -4.242188 4.34375 -6.265625 C 3.195312 -8.296875 2.625 -10.59375 2.625 -13.15625 C 2.625 -15.726562 3.15625 -18.023438 4.21875 -20.046875 C 5.289062 -22.066406 6.769531 -23.644531 8.65625 -24.78125 C 10.539062 -25.914062 12.648438 -26.484375 14.984375 -26.484375 C 17.273438 -26.484375 19.359375 -25.925781 21.234375 -24.8125 C 23.109375 -23.695312 24.582031 -22.140625 25.65625 -20.140625 C 26.738281 -18.148438 27.28125 -15.890625 27.28125 -13.359375 Z M 14.984375 -24.953125 C 13.023438 -24.953125 11.253906 -24.492188 9.671875 -23.578125 C 8.085938 -22.671875 6.820312 -21.398438 5.875 -19.765625 C 4.925781 -18.128906 4.398438 -16.300781 4.296875 -14.28125 L 25.71875 -14.28125 C 25.582031 -16.300781 25.03125 -18.128906 24.0625 -19.765625 C 23.101562 -21.398438 21.835938 -22.671875 20.265625 -23.578125 C 18.703125 -24.492188 16.941406 -24.953125 14.984375 -24.953125 Z M 14.984375 -24.953125 "/>
    </g>
  </g>
  <g style="fill:#ffffff;fill-opacity:1;">
    <g transform="translate(180.3544, 148.047983)">
      <path style="stroke:none" d=""/>
    </g>
  </g>
  <g style="fill:#ffffff;fill-opacity:1;">
    <g transform="translate(193.162818, 148.047983)">
      <path style="stroke:none" d="M 15.4375 0.203125 C 12.875 0.203125 10.4375 -0.25 8.125 -1.15625 C 5.8125 -2.070312 4.03125 -3.253906 2.78125 -4.703125 L 3.703125 -5.921875 C 4.878906 -4.566406 6.519531 -3.457031 8.625 -2.59375 C 10.738281 -1.738281 12.992188 -1.3125 15.390625 -1.3125 C 18.929688 -1.3125 21.601562 -2.007812 23.40625 -3.40625 C 25.21875 -4.8125 26.125 -6.613281 26.125 -8.8125 C 26.125 -10.5 25.648438 -11.851562 24.703125 -12.875 C 23.753906 -13.90625 22.585938 -14.679688 21.203125 -15.203125 C 19.828125 -15.734375 17.941406 -16.285156 15.546875 -16.859375 C 12.972656 -17.492188 10.910156 -18.113281 9.359375 -18.71875 C 7.804688 -19.332031 6.488281 -20.265625 5.40625 -21.515625 C 4.332031 -22.765625 3.796875 -24.4375 3.796875 -26.53125 C 3.796875 -28.1875 4.234375 -29.703125 5.109375 -31.078125 C 5.984375 -32.460938 7.320312 -33.566406 9.125 -34.390625 C 10.9375 -35.222656 13.191406 -35.640625 15.890625 -35.640625 C 17.816406 -35.640625 19.71875 -35.351562 21.59375 -34.78125 C 23.46875 -34.207031 25.0625 -33.414062 26.375 -32.40625 L 25.609375 -31.03125 C 24.234375 -32.039062 22.691406 -32.804688 20.984375 -33.328125 C 19.273438 -33.859375 17.597656 -34.125 15.953125 -34.125 C 12.503906 -34.125 9.894531 -33.40625 8.125 -31.96875 C 6.351562 -30.53125 5.46875 -28.71875 5.46875 -26.53125 C 5.46875 -24.8125 5.945312 -23.4375 6.90625 -22.40625 C 7.875 -21.375 9.054688 -20.585938 10.453125 -20.046875 C 11.859375 -19.503906 13.738281 -18.945312 16.09375 -18.375 C 18.664062 -17.738281 20.726562 -17.125 22.28125 -16.53125 C 23.832031 -15.9375 25.140625 -15.023438 26.203125 -13.796875 C 27.265625 -12.566406 27.796875 -10.921875 27.796875 -8.859375 C 27.796875 -7.203125 27.347656 -5.679688 26.453125 -4.296875 C 25.554688 -2.921875 24.179688 -1.828125 22.328125 -1.015625 C 20.472656 -0.203125 18.175781 0.203125 15.4375 0.203125 Z M 15.4375 0.203125 "/>
    </g>
  </g>
  <g style="fill:#ffffff;fill-opacity:1;">
    <g transform="translate(223.741021, 148.047983)">
      <path style="stroke:none" d="M 18.015625 -26.484375 C 21.296875 -26.484375 23.878906 -25.523438 25.765625 -23.609375 C 27.660156 -21.703125 28.609375 -18.976562 28.609375 -15.4375 L 28.609375 0 L 26.9375 0 L 26.9375 -15.34375 C 26.9375 -18.445312 26.148438 -20.816406 24.578125 -22.453125 C 23.003906 -24.085938 20.769531 -24.90625 17.875 -24.90625 C 14.59375 -24.90625 12.007812 -23.929688 10.125 -21.984375 C 8.238281 -20.046875 7.296875 -17.441406 7.296875 -14.171875 L 7.296875 0 L 5.625 0 L 5.625 -37.5625 L 7.296875 -37.5625 L 7.296875 -20 C 8.171875 -22.019531 9.535156 -23.601562 11.390625 -24.75 C 13.242188 -25.90625 15.453125 -26.484375 18.015625 -26.484375 Z M 18.015625 -26.484375 "/>
    </g>
  </g>
  <g style="fill:#ffffff;fill-opacity:1;">
    <g transform="translate(257.660539, 148.047983)">
      <path style="stroke:none" d="M 14.21875 -26.484375 C 17.363281 -26.484375 19.769531 -25.671875 21.4375 -24.046875 C 23.113281 -22.421875 23.953125 -20.078125 23.953125 -17.015625 L 23.953125 0 L 22.328125 0 L 22.328125 -5.265625 C 21.484375 -3.578125 20.222656 -2.25 18.546875 -1.28125 C 16.878906 -0.320312 14.882812 0.15625 12.5625 0.15625 C 9.625 0.15625 7.316406 -0.515625 5.640625 -1.859375 C 3.972656 -3.210938 3.140625 -5.003906 3.140625 -7.234375 C 3.140625 -9.359375 3.894531 -11.085938 5.40625 -12.421875 C 6.925781 -13.753906 9.359375 -14.421875 12.703125 -14.421875 L 22.28125 -14.421875 L 22.28125 -17.015625 C 22.28125 -19.609375 21.59375 -21.578125 20.21875 -22.921875 C 18.851562 -24.273438 16.835938 -24.953125 14.171875 -24.953125 C 12.316406 -24.953125 10.578125 -24.628906 8.953125 -23.984375 C 7.335938 -23.347656 5.957031 -22.492188 4.8125 -21.421875 L 3.890625 -22.625 C 5.179688 -23.84375 6.726562 -24.789062 8.53125 -25.46875 C 10.332031 -26.144531 12.226562 -26.484375 14.21875 -26.484375 Z M 12.65625 -1.265625 C 17.382812 -1.265625 20.59375 -3.375 22.28125 -7.59375 L 22.28125 -13.0625 L 12.703125 -13.0625 C 9.972656 -13.0625 7.972656 -12.546875 6.703125 -11.515625 C 5.441406 -10.484375 4.8125 -9.09375 4.8125 -7.34375 C 4.8125 -5.445312 5.507812 -3.957031 6.90625 -2.875 C 8.3125 -1.800781 10.226562 -1.265625 12.65625 -1.265625 Z M 12.65625 -1.265625 "/>
    </g>
  </g>
  <g style="fill:#ffffff;fill-opacity:1;">
    <g transform="translate(286.922486, 148.047983)">
      <path style="stroke:none" d="M 7.234375 -19.953125 C 8.015625 -22.035156 9.273438 -23.644531 11.015625 -24.78125 C 12.753906 -25.914062 14.90625 -26.484375 17.46875 -26.484375 L 17.46875 -24.8125 L 17.015625 -24.8125 C 13.972656 -24.8125 11.59375 -23.847656 9.875 -21.921875 C 8.15625 -19.992188 7.296875 -17.34375 7.296875 -13.96875 L 7.296875 0 L 5.625 0 L 5.625 -26.28125 L 7.234375 -26.28125 Z M 7.234375 -19.953125 "/>
    </g>
  </g>
  <g style="fill:#ffffff;fill-opacity:1;">
    <g transform="translate(306.56544, 148.047983)">
      <path style="stroke:none" d="M 14.625 -14.734375 L 7.296875 -8 L 7.296875 0 L 5.625 0 L 5.625 -37.5625 L 7.296875 -37.5625 L 7.296875 -10.03125 L 25.109375 -26.28125 L 27.34375 -26.28125 L 15.953125 -15.75 L 28.5 0 L 26.375 0 Z M 14.625 -14.734375 "/>
    </g>
  </g>
  <g style="fill:#f99f81;fill-opacity:1;">
    <g transform="translate(82.846665, 170.822813)">
      <path style="stroke:none" d="M 5.625 0.21875 C 4.625 0.21875 3.660156 0.0820312 2.734375 -0.1875 C 1.804688 -0.457031 1.0625 -0.804688 0.5 -1.234375 L 1.484375 -3.421875 C 2.023438 -3.035156 2.664062 -2.722656 3.40625 -2.484375 C 4.15625 -2.242188 4.898438 -2.125 5.640625 -2.125 C 6.460938 -2.125 7.070312 -2.242188 7.46875 -2.484375 C 7.863281 -2.734375 8.0625 -3.0625 8.0625 -3.46875 C 8.0625 -3.757812 7.941406 -4.003906 7.703125 -4.203125 C 7.472656 -4.398438 7.175781 -4.554688 6.8125 -4.671875 C 6.445312 -4.796875 5.953125 -4.929688 5.328125 -5.078125 C 4.367188 -5.304688 3.582031 -5.535156 2.96875 -5.765625 C 2.363281 -5.992188 1.84375 -6.359375 1.40625 -6.859375 C 0.96875 -7.359375 0.75 -8.03125 0.75 -8.875 C 0.75 -9.601562 0.945312 -10.257812 1.34375 -10.84375 C 1.738281 -11.4375 2.332031 -11.90625 3.125 -12.25 C 3.925781 -12.601562 4.898438 -12.78125 6.046875 -12.78125 C 6.847656 -12.78125 7.628906 -12.679688 8.390625 -12.484375 C 9.160156 -12.296875 9.832031 -12.023438 10.40625 -11.671875 L 9.515625 -9.46875 C 8.359375 -10.125 7.195312 -10.453125 6.03125 -10.453125 C 5.21875 -10.453125 4.613281 -10.316406 4.21875 -10.046875 C 3.832031 -9.785156 3.640625 -9.441406 3.640625 -9.015625 C 3.640625 -8.578125 3.863281 -8.253906 4.3125 -8.046875 C 4.757812 -7.835938 5.445312 -7.632812 6.375 -7.4375 C 7.332031 -7.207031 8.113281 -6.976562 8.71875 -6.75 C 9.332031 -6.519531 9.859375 -6.160156 10.296875 -5.671875 C 10.734375 -5.179688 10.953125 -4.519531 10.953125 -3.6875 C 10.953125 -2.96875 10.75 -2.3125 10.34375 -1.71875 C 9.945312 -1.125 9.347656 -0.648438 8.546875 -0.296875 C 7.742188 0.046875 6.769531 0.21875 5.625 0.21875 Z M 5.625 0.21875 "/>
    </g>
  </g>
  <g style="fill:#f99f81;fill-opacity:1;">
    <g transform="translate(104.261626, 170.822813)">
      <path style="stroke:none" d="M 7.578125 0.21875 C 6.273438 0.21875 5.097656 -0.0625 4.046875 -0.625 C 3.003906 -1.1875 2.1875 -1.960938 1.59375 -2.953125 C 1 -3.941406 0.703125 -5.050781 0.703125 -6.28125 C 0.703125 -7.507812 1 -8.617188 1.59375 -9.609375 C 2.1875 -10.597656 3.003906 -11.375 4.046875 -11.9375 C 5.097656 -12.5 6.273438 -12.78125 7.578125 -12.78125 C 8.878906 -12.78125 10.050781 -12.5 11.09375 -11.9375 C 12.132812 -11.375 12.953125 -10.597656 13.546875 -9.609375 C 14.148438 -8.617188 14.453125 -7.507812 14.453125 -6.28125 C 14.453125 -5.050781 14.148438 -3.941406 13.546875 -2.953125 C 12.953125 -1.960938 12.132812 -1.1875 11.09375 -0.625 C 10.050781 -0.0625 8.878906 0.21875 7.578125 0.21875 Z M 7.578125 -2.265625 C 8.316406 -2.265625 8.984375 -2.429688 9.578125 -2.765625 C 10.179688 -3.109375 10.65625 -3.582031 11 -4.1875 C 11.34375 -4.800781 11.515625 -5.5 11.515625 -6.28125 C 11.515625 -7.0625 11.34375 -7.753906 11 -8.359375 C 10.65625 -8.972656 10.179688 -9.453125 9.578125 -9.796875 C 8.984375 -10.140625 8.316406 -10.3125 7.578125 -10.3125 C 6.835938 -10.3125 6.164062 -10.140625 5.5625 -9.796875 C 4.96875 -9.453125 4.5 -8.972656 4.15625 -8.359375 C 3.8125 -7.753906 3.640625 -7.0625 3.640625 -6.28125 C 3.640625 -5.5 3.8125 -4.800781 4.15625 -4.1875 C 4.5 -3.582031 4.96875 -3.109375 5.5625 -2.765625 C 6.164062 -2.429688 6.835938 -2.265625 7.578125 -2.265625 Z M 7.578125 -2.265625 "/>
    </g>
  </g>
  <g style="fill:#f99f81;fill-opacity:1;">
    <g transform="translate(129.37439, 170.822813)">
      <path style="stroke:none" d="M 1.484375 -12.5625 L 4.40625 -12.5625 L 4.40625 -2.375 L 10.703125 -2.375 L 10.703125 0 L 1.484375 0 Z M 1.484375 -12.5625 "/>
    </g>
  </g>
  <g style="fill:#f99f81;fill-opacity:1;">
    <g transform="translate(150.179037, 170.822813)">
      <path style="stroke:none" d="M 7.078125 0.21875 C 5.273438 0.21875 3.875 -0.273438 2.875 -1.265625 C 1.875 -2.265625 1.375 -3.6875 1.375 -5.53125 L 1.375 -12.5625 L 4.296875 -12.5625 L 4.296875 -5.640625 C 4.296875 -3.390625 5.226562 -2.265625 7.09375 -2.265625 C 8 -2.265625 8.691406 -2.535156 9.171875 -3.078125 C 9.648438 -3.617188 9.890625 -4.472656 9.890625 -5.640625 L 9.890625 -12.5625 L 12.765625 -12.5625 L 12.765625 -5.53125 C 12.765625 -3.6875 12.265625 -2.265625 11.265625 -1.265625 C 10.265625 -0.273438 8.867188 0.21875 7.078125 0.21875 Z M 7.078125 0.21875 "/>
    </g>
  </g>
  <g style="fill:#f99f81;fill-opacity:1;">
    <g transform="translate(174.286575, 170.822813)">
      <path style="stroke:none" d="M 4.09375 -10.203125 L 0.078125 -10.203125 L 0.078125 -12.5625 L 11.015625 -12.5625 L 11.015625 -10.203125 L 7 -10.203125 L 7 0 L 4.09375 0 Z M 4.09375 -10.203125 "/>
    </g>
  </g>
  <g style="fill:#f99f81;fill-opacity:1;">
    <g transform="translate(195.342529, 170.822813)">
      <path style="stroke:none" d="M 1.484375 -12.5625 L 4.40625 -12.5625 L 4.40625 0 L 1.484375 0 Z M 1.484375 -12.5625 "/>
    </g>
  </g>
  <g style="fill:#f99f81;fill-opacity:1;">
    <g transform="translate(211.192841, 170.822813)">
      <path style="stroke:none" d="M 7.578125 0.21875 C 6.273438 0.21875 5.097656 -0.0625 4.046875 -0.625 C 3.003906 -1.1875 2.1875 -1.960938 1.59375 -2.953125 C 1 -3.941406 0.703125 -5.050781 0.703125 -6.28125 C 0.703125 -7.507812 1 -8.617188 1.59375 -9.609375 C 2.1875 -10.597656 3.003906 -11.375 4.046875 -11.9375 C 5.097656 -12.5 6.273438 -12.78125 7.578125 -12.78125 C 8.878906 -12.78125 10.050781 -12.5 11.09375 -11.9375 C 12.132812 -11.375 12.953125 -10.597656 13.546875 -9.609375 C 14.148438 -8.617188 14.453125 -7.507812 14.453125 -6.28125 C 14.453125 -5.050781 14.148438 -3.941406 13.546875 -2.953125 C 12.953125 -1.960938 12.132812 -1.1875 11.09375 -0.625 C 10.050781 -0.0625 8.878906 0.21875 7.578125 0.21875 Z M 7.578125 -2.265625 C 8.316406 -2.265625 8.984375 -2.429688 9.578125 -2.765625 C 10.179688 -3.109375 10.65625 -3.582031 11 -4.1875 C 11.34375 -4.800781 11.515625 -5.5 11.515625 -6.28125 C 11.515625 -7.0625 11.34375 -7.753906 11 -8.359375 C 10.65625 -8.972656 10.179688 -9.453125 9.578125 -9.796875 C 8.984375 -10.140625 8.316406 -10.3125 7.578125 -10.3125 C 6.835938 -10.3125 6.164062 -10.140625 5.5625 -9.796875 C 4.96875 -9.453125 4.5 -8.972656 4.15625 -8.359375 C 3.8125 -7.753906 3.640625 -7.0625 3.640625 -6.28125 C 3.640625 -5.5 3.8125 -4.800781 4.15625 -4.1875 C 4.5 -3.582031 4.96875 -3.109375 5.5625 -2.765625 C 6.164062 -2.429688 6.835938 -2.265625 7.578125 -2.265625 Z M 7.578125 -2.265625 "/>
    </g>
  </g>
  <g style="fill:#f99f81;fill-opacity:1;">
    <g transform="translate(236.305605, 170.822813)">
      <path style="stroke:none" d="M 13.015625 -12.5625 L 13.015625 0 L 10.625 0 L 4.359375 -7.625 L 4.359375 0 L 1.484375 0 L 1.484375 -12.5625 L 3.890625 -12.5625 L 10.140625 -4.9375 L 10.140625 -12.5625 Z M 13.015625 -12.5625 "/>
    </g>
  </g>
  <g style="fill:#f99f81;fill-opacity:1;">
    <g transform="translate(260.77215, 170.822813)">
      <path style="stroke:none" d="M 5.625 0.21875 C 4.625 0.21875 3.660156 0.0820312 2.734375 -0.1875 C 1.804688 -0.457031 1.0625 -0.804688 0.5 -1.234375 L 1.484375 -3.421875 C 2.023438 -3.035156 2.664062 -2.722656 3.40625 -2.484375 C 4.15625 -2.242188 4.898438 -2.125 5.640625 -2.125 C 6.460938 -2.125 7.070312 -2.242188 7.46875 -2.484375 C 7.863281 -2.734375 8.0625 -3.0625 8.0625 -3.46875 C 8.0625 -3.757812 7.941406 -4.003906 7.703125 -4.203125 C 7.472656 -4.398438 7.175781 -4.554688 6.8125 -4.671875 C 6.445312 -4.796875 5.953125 -4.929688 5.328125 -5.078125 C 4.367188 -5.304688 3.582031 -5.535156 2.96875 -5.765625 C 2.363281 -5.992188 1.84375 -6.359375 1.40625 -6.859375 C 0.96875 -7.359375 0.75 -8.03125 0.75 -8.875 C 0.75 -9.601562 0.945312 -10.257812 1.34375 -10.84375 C 1.738281 -11.4375 2.332031 -11.90625 3.125 -12.25 C 3.925781 -12.601562 4.898438 -12.78125 6.046875 -12.78125 C 6.847656 -12.78125 7.628906 -12.679688 8.390625 -12.484375 C 9.160156 -12.296875 9.832031 -12.023438 10.40625 -11.671875 L 9.515625 -9.46875 C 8.359375 -10.125 7.195312 -10.453125 6.03125 -10.453125 C 5.21875 -10.453125 4.613281 -10.316406 4.21875 -10.046875 C 3.832031 -9.785156 3.640625 -9.441406 3.640625 -9.015625 C 3.640625 -8.578125 3.863281 -8.253906 4.3125 -8.046875 C 4.757812 -7.835938 5.445312 -7.632812 6.375 -7.4375 C 7.332031 -7.207031 8.113281 -6.976562 8.71875 -6.75 C 9.332031 -6.519531 9.859375 -6.160156 10.296875 -5.671875 C 10.734375 -5.179688 10.953125 -4.519531 10.953125 -3.6875 C 10.953125 -2.96875 10.75 -2.3125 10.34375 -1.71875 C 9.945312 -1.125 9.347656 -0.648438 8.546875 -0.296875 C 7.742188 0.046875 6.769531 0.21875 5.625 0.21875 Z M 5.625 0.21875 "/>
    </g>
  </g>
</svg> 