<svg xmlns="http://www.w3.org/2000/svg" xmlns:xlink="http://www.w3.org/1999/xlink" width="475" zoomAndPan="magnify" viewBox="0 0 356.25 181.5" height="242" preserveAspectRatio="xMidYMid meet" version="1.2"><defs><clipPath id="bc4b5ad03a"><path d="M 122.117188 0 L 249 0 L 249 98.726562 L 122.117188 98.726562 Z M 122.117188 0 "/></clipPath></defs><g id="fe3c8852a0"><g clip-rule="nonzero" clip-path="url(#bc4b5ad03a)"><path style=" stroke:none;fill-rule:nonzero;fill:#f99f81;fill-opacity:1;" d="M 248.546875 101.503906 L 248.546875 114.113281 C 244.511719 118.210938 238.898438 119.976562 234.613281 120.355469 C 234.046875 120.417969 233.414062 120.417969 232.785156 120.417969 C 231.964844 120.417969 231.207031 120.417969 230.453125 120.292969 C 226.289062 119.789062 220.929688 118.085938 217.023438 114.113281 C 213.113281 118.085938 207.753906 119.789062 203.59375 120.292969 C 202.835938 120.417969 202.082031 120.417969 201.261719 120.417969 C 200.441406 120.417969 199.683594 120.417969 198.929688 120.292969 C 194.765625 119.789062 189.410156 118.085938 185.5 114.113281 C 181.589844 118.085938 176.230469 119.789062 172.070312 120.292969 C 171.3125 120.417969 170.558594 120.417969 169.738281 120.417969 C 168.917969 120.417969 168.160156 120.417969 167.40625 120.292969 C 163.246094 119.789062 157.886719 118.085938 153.976562 114.113281 C 150.066406 118.085938 144.707031 119.789062 140.546875 120.292969 C 139.792969 120.417969 139.035156 120.417969 138.214844 120.417969 C 137.585938 120.417969 136.953125 120.417969 136.386719 120.355469 C 132.097656 119.976562 126.488281 118.210938 122.453125 114.113281 L 122.453125 101.503906 C 126.488281 105.601562 132.097656 107.367188 136.386719 107.746094 C 136.953125 107.808594 137.585938 107.808594 138.214844 107.808594 C 138.910156 107.808594 139.664062 107.746094 140.421875 107.683594 C 140.925781 107.683594 141.367188 107.621094 141.871094 107.492188 C 145.78125 106.800781 150.445312 105.035156 153.976562 101.503906 C 157.507812 105.035156 162.171875 106.800781 166.082031 107.492188 C 166.585938 107.621094 167.027344 107.683594 167.53125 107.683594 C 168.289062 107.746094 169.042969 107.808594 169.738281 107.808594 C 170.429688 107.808594 171.1875 107.746094 171.945312 107.683594 C 172.449219 107.683594 172.890625 107.621094 173.394531 107.492188 C 177.304688 106.800781 181.96875 105.035156 185.5 101.503906 C 189.03125 105.035156 193.695312 106.800781 197.605469 107.492188 C 198.109375 107.621094 198.550781 107.683594 199.054688 107.683594 C 199.8125 107.746094 200.566406 107.808594 201.261719 107.808594 C 201.953125 107.808594 202.710938 107.746094 203.46875 107.683594 C 203.972656 107.683594 204.414062 107.621094 204.917969 107.492188 C 208.828125 106.800781 213.492188 105.035156 217.023438 101.503906 C 220.554688 105.035156 225.21875 106.800781 229.128906 107.492188 C 229.632812 107.621094 230.074219 107.683594 230.578125 107.683594 C 231.335938 107.746094 232.089844 107.808594 232.785156 107.808594 C 233.414062 107.808594 234.046875 107.808594 234.613281 107.746094 C 238.898438 107.367188 244.511719 105.601562 248.546875 101.503906 Z M 235.054688 95.074219 C 234.929688 95.136719 234.738281 95.136719 234.613281 95.136719 C 234.046875 95.199219 233.414062 95.199219 232.785156 95.199219 C 232.089844 95.199219 231.335938 95.136719 230.578125 95.074219 C 230.074219 95.074219 229.632812 95.011719 229.128906 94.882812 C 226.730469 94.441406 224.082031 93.625 221.5625 92.300781 C 217.589844 74.773438 204.476562 38.269531 164.191406 18.15625 C 170.242188 45.394531 161.351562 72.566406 153.851562 89.019531 C 150.320312 92.488281 145.71875 94.191406 141.871094 94.882812 C 141.367188 95.011719 140.925781 95.074219 140.421875 95.074219 C 139.664062 95.136719 138.910156 95.199219 138.214844 95.199219 C 137.648438 95.199219 137.082031 95.199219 136.574219 95.136719 C 142.878906 84.039062 163.054688 44.070312 148.175781 9.394531 C 147.167969 7.125 147.671875 4.414062 149.375 2.585938 C 151.140625 0.757812 153.789062 0.125 156.121094 1.007812 C 217.210938 23.199219 231.839844 77.042969 235.054688 95.074219 Z M 235.054688 95.074219 "/></g><g style="fill:#002d40;fill-opacity:1;"><g transform="translate(15.615731, 148.047983)"><path style="stroke:none" d="M 54.421875 -35.4375 L 42.46875 0 L 38.53125 0 L 28.140625 -30.21875 L 17.71875 0 L 13.828125 0 L 1.875 -35.4375 L 5.71875 -35.4375 L 15.953125 -4.96875 L 26.53125 -35.4375 L 30.015625 -35.4375 L 40.453125 -4.8125 L 50.828125 -35.4375 Z M 54.421875 -35.4375 "/></g></g><g style="fill:#002d40;fill-opacity:1;"><g transform="translate(71.861398, 148.047983)"><path style="stroke:none" d="M 18.578125 -26.828125 C 21.921875 -26.828125 24.578125 -25.859375 26.546875 -23.921875 C 28.523438 -21.984375 29.515625 -19.15625 29.515625 -15.4375 L 29.515625 0 L 25.921875 0 L 25.921875 -15.09375 C 25.921875 -17.851562 25.226562 -19.957031 23.84375 -21.40625 C 22.457031 -22.863281 20.484375 -23.59375 17.921875 -23.59375 C 15.054688 -23.59375 12.785156 -22.738281 11.109375 -21.03125 C 9.441406 -19.332031 8.609375 -16.976562 8.609375 -13.96875 L 8.609375 0 L 5.015625 0 L 5.015625 -37.5625 L 8.609375 -37.5625 L 8.609375 -21.96875 C 9.585938 -23.519531 10.9375 -24.71875 12.65625 -25.5625 C 14.375 -26.40625 16.347656 -26.828125 18.578125 -26.828125 Z M 18.578125 -26.828125 "/></g></g><g style="fill:#002d40;fill-opacity:1;"><g transform="translate(106.135314, 148.047983)"><path style="stroke:none" d="M 14.328125 -26.828125 C 17.804688 -26.828125 20.472656 -25.957031 22.328125 -24.21875 C 24.179688 -22.476562 25.109375 -19.90625 25.109375 -16.5 L 25.109375 0 L 21.671875 0 L 21.671875 -4.15625 C 20.859375 -2.769531 19.664062 -1.6875 18.09375 -0.90625 C 16.53125 -0.132812 14.664062 0.25 12.5 0.25 C 9.53125 0.25 7.164062 -0.457031 5.40625 -1.875 C 3.65625 -3.289062 2.78125 -5.164062 2.78125 -7.5 C 2.78125 -9.757812 3.597656 -11.578125 5.234375 -12.953125 C 6.867188 -14.335938 9.476562 -15.03125 13.0625 -15.03125 L 21.515625 -15.03125 L 21.515625 -16.65625 C 21.515625 -18.945312 20.875 -20.691406 19.59375 -21.890625 C 18.3125 -23.085938 16.4375 -23.6875 13.96875 -23.6875 C 12.28125 -23.6875 10.660156 -23.40625 9.109375 -22.84375 C 7.554688 -22.289062 6.222656 -21.523438 5.109375 -20.546875 L 3.5 -23.234375 C 4.84375 -24.378906 6.457031 -25.265625 8.34375 -25.890625 C 10.238281 -26.515625 12.234375 -26.828125 14.328125 -26.828125 Z M 13.0625 -2.578125 C 15.082031 -2.578125 16.816406 -3.039062 18.265625 -3.96875 C 19.722656 -4.894531 20.804688 -6.238281 21.515625 -8 L 21.515625 -12.359375 L 13.15625 -12.359375 C 8.601562 -12.359375 6.328125 -10.769531 6.328125 -7.59375 C 6.328125 -6.039062 6.914062 -4.816406 8.09375 -3.921875 C 9.28125 -3.023438 10.9375 -2.578125 13.0625 -2.578125 Z M 13.0625 -2.578125 "/></g></g><g style="fill:#002d40;fill-opacity:1;"><g transform="translate(136.004756, 148.047983)"><path style="stroke:none" d="M 5.015625 -37.5625 L 8.609375 -37.5625 L 8.609375 0 L 5.015625 0 Z M 5.015625 -37.5625 "/></g></g><g style="fill:#002d40;fill-opacity:1;"><g transform="translate(149.623199, 148.047983)"><path style="stroke:none" d="M 28.203125 -12.203125 L 5.921875 -12.203125 C 6.128906 -9.429688 7.191406 -7.191406 9.109375 -5.484375 C 11.035156 -3.785156 13.46875 -2.9375 16.40625 -2.9375 C 18.0625 -2.9375 19.578125 -3.226562 20.953125 -3.8125 C 22.335938 -4.40625 23.535156 -5.273438 24.546875 -6.421875 L 26.578125 -4.09375 C 25.398438 -2.675781 23.921875 -1.597656 22.140625 -0.859375 C 20.367188 -0.117188 18.421875 0.25 16.296875 0.25 C 13.566406 0.25 11.144531 -0.328125 9.03125 -1.484375 C 6.925781 -2.648438 5.28125 -4.265625 4.09375 -6.328125 C 2.914062 -8.390625 2.328125 -10.71875 2.328125 -13.3125 C 2.328125 -15.914062 2.890625 -18.242188 4.015625 -20.296875 C 5.148438 -22.359375 6.703125 -23.960938 8.671875 -25.109375 C 10.648438 -26.253906 12.875 -26.828125 15.34375 -26.828125 C 17.800781 -26.828125 20.007812 -26.253906 21.96875 -25.109375 C 23.925781 -23.960938 25.460938 -22.367188 26.578125 -20.328125 C 27.691406 -18.285156 28.25 -15.945312 28.25 -13.3125 Z M 15.34375 -23.75 C 12.769531 -23.75 10.613281 -22.925781 8.875 -21.28125 C 7.144531 -19.644531 6.160156 -17.515625 5.921875 -14.890625 L 24.8125 -14.890625 C 24.570312 -17.515625 23.582031 -19.644531 21.84375 -21.28125 C 20.101562 -22.925781 17.9375 -23.75 15.34375 -23.75 Z M 15.34375 -23.75 "/></g></g><g style="fill:#002d40;fill-opacity:1;"><g transform="translate(180.201402, 148.047983)"><path style="stroke:none" d=""/></g></g><g style="fill:#002d40;fill-opacity:1;"><g transform="translate(193.465459, 148.047983)"><path style="stroke:none" d="M 15.546875 0.296875 C 12.910156 0.296875 10.382812 -0.125 7.96875 -0.96875 C 5.5625 -1.8125 3.695312 -2.921875 2.375 -4.296875 L 3.84375 -7.1875 C 5.125 -5.90625 6.828125 -4.867188 8.953125 -4.078125 C 11.085938 -3.285156 13.285156 -2.890625 15.546875 -2.890625 C 18.710938 -2.890625 21.085938 -3.46875 22.671875 -4.625 C 24.265625 -5.789062 25.0625 -7.300781 25.0625 -9.15625 C 25.0625 -10.582031 24.628906 -11.71875 23.765625 -12.5625 C 22.910156 -13.40625 21.859375 -14.050781 20.609375 -14.5 C 19.359375 -14.957031 17.617188 -15.457031 15.390625 -16 C 12.722656 -16.675781 10.59375 -17.328125 9 -17.953125 C 7.414062 -18.578125 6.054688 -19.53125 4.921875 -20.8125 C 3.796875 -22.09375 3.234375 -23.828125 3.234375 -26.015625 C 3.234375 -27.804688 3.707031 -29.4375 4.65625 -30.90625 C 5.601562 -32.375 7.054688 -33.546875 9.015625 -34.421875 C 10.972656 -35.296875 13.398438 -35.734375 16.296875 -35.734375 C 18.328125 -35.734375 20.3125 -35.457031 22.25 -34.90625 C 24.1875 -34.351562 25.863281 -33.585938 27.28125 -32.609375 L 26.015625 -29.609375 C 24.535156 -30.585938 22.953125 -31.320312 21.265625 -31.8125 C 19.578125 -32.300781 17.921875 -32.546875 16.296875 -32.546875 C 13.191406 -32.546875 10.851562 -31.945312 9.28125 -30.75 C 7.71875 -29.550781 6.9375 -28.007812 6.9375 -26.125 C 6.9375 -24.707031 7.363281 -23.566406 8.21875 -22.703125 C 9.082031 -21.847656 10.164062 -21.191406 11.46875 -20.734375 C 12.769531 -20.273438 14.515625 -19.773438 16.703125 -19.234375 C 19.304688 -18.597656 21.40625 -17.96875 23 -17.34375 C 24.601562 -16.71875 25.960938 -15.769531 27.078125 -14.5 C 28.191406 -13.238281 28.75 -11.523438 28.75 -9.359375 C 28.75 -7.578125 28.269531 -5.953125 27.3125 -4.484375 C 26.351562 -3.015625 24.875 -1.847656 22.875 -0.984375 C 20.882812 -0.128906 18.441406 0.296875 15.546875 0.296875 Z M 15.546875 0.296875 "/></g></g><g style="fill:#002d40;fill-opacity:1;"><g transform="translate(224.600554, 148.047983)"><path style="stroke:none" d="M 18.578125 -26.828125 C 21.921875 -26.828125 24.578125 -25.859375 26.546875 -23.921875 C 28.523438 -21.984375 29.515625 -19.15625 29.515625 -15.4375 L 29.515625 0 L 25.921875 0 L 25.921875 -15.09375 C 25.921875 -17.851562 25.226562 -19.957031 23.84375 -21.40625 C 22.457031 -22.863281 20.484375 -23.59375 17.921875 -23.59375 C 15.054688 -23.59375 12.785156 -22.738281 11.109375 -21.03125 C 9.441406 -19.332031 8.609375 -16.976562 8.609375 -13.96875 L 8.609375 0 L 5.015625 0 L 5.015625 -37.5625 L 8.609375 -37.5625 L 8.609375 -21.96875 C 9.585938 -23.519531 10.9375 -24.71875 12.65625 -25.5625 C 14.375 -26.40625 16.347656 -26.828125 18.578125 -26.828125 Z M 18.578125 -26.828125 "/></g></g><g style="fill:#002d40;fill-opacity:1;"><g transform="translate(258.874481, 148.047983)"><path style="stroke:none" d="M 14.328125 -26.828125 C 17.804688 -26.828125 20.472656 -25.957031 22.328125 -24.21875 C 24.179688 -22.476562 25.109375 -19.90625 25.109375 -16.5 L 25.109375 0 L 21.671875 0 L 21.671875 -4.15625 C 20.859375 -2.769531 19.664062 -1.6875 18.09375 -0.90625 C 16.53125 -0.132812 14.664062 0.25 12.5 0.25 C 9.53125 0.25 7.164062 -0.457031 5.40625 -1.875 C 3.65625 -3.289062 2.78125 -5.164062 2.78125 -7.5 C 2.78125 -9.757812 3.597656 -11.578125 5.234375 -12.953125 C 6.867188 -14.335938 9.476562 -15.03125 13.0625 -15.03125 L 21.515625 -15.03125 L 21.515625 -16.65625 C 21.515625 -18.945312 20.875 -20.691406 19.59375 -21.890625 C 18.3125 -23.085938 16.4375 -23.6875 13.96875 -23.6875 C 12.28125 -23.6875 10.660156 -23.40625 9.109375 -22.84375 C 7.554688 -22.289062 6.222656 -21.523438 5.109375 -20.546875 L 3.5 -23.234375 C 4.84375 -24.378906 6.457031 -25.265625 8.34375 -25.890625 C 10.238281 -26.515625 12.234375 -26.828125 14.328125 -26.828125 Z M 13.0625 -2.578125 C 15.082031 -2.578125 16.816406 -3.039062 18.265625 -3.96875 C 19.722656 -4.894531 20.804688 -6.238281 21.515625 -8 L 21.515625 -12.359375 L 13.15625 -12.359375 C 8.601562 -12.359375 6.328125 -10.769531 6.328125 -7.59375 C 6.328125 -6.039062 6.914062 -4.816406 8.09375 -3.921875 C 9.28125 -3.023438 10.9375 -2.578125 13.0625 -2.578125 Z M 13.0625 -2.578125 "/></g></g><g style="fill:#002d40;fill-opacity:1;"><g transform="translate(288.743901, 148.047983)"><path style="stroke:none" d="M 8.453125 -21.421875 C 9.296875 -23.203125 10.550781 -24.546875 12.21875 -25.453125 C 13.894531 -26.367188 15.960938 -26.828125 18.421875 -26.828125 L 18.421875 -23.34375 L 17.5625 -23.390625 C 14.757812 -23.390625 12.566406 -22.523438 10.984375 -20.796875 C 9.398438 -19.078125 8.609375 -16.664062 8.609375 -13.5625 L 8.609375 0 L 5.015625 0 L 5.015625 -26.625 L 8.453125 -26.625 Z M 8.453125 -21.421875 "/></g></g><g style="fill:#002d40;fill-opacity:1;"><g transform="translate(309.044999, 148.047983)"><path style="stroke:none" d="M 14.890625 -13.359375 L 8.609375 -7.59375 L 8.609375 0 L 5.015625 0 L 5.015625 -37.5625 L 8.609375 -37.5625 L 8.609375 -12.09375 L 24.5 -26.625 L 28.953125 -26.625 L 17.5625 -15.75 L 30.015625 0 L 25.609375 0 Z M 14.890625 -13.359375 "/></g></g><g style="fill:#f99f81;fill-opacity:1;"><g transform="translate(90.917954, 170.822813)"><path style="stroke:none" d="M 5.625 0.21875 C 4.625 0.21875 3.660156 0.0820312 2.734375 -0.1875 C 1.804688 -0.457031 1.0625 -0.804688 0.5 -1.234375 L 1.484375 -3.421875 C 2.023438 -3.035156 2.664062 -2.722656 3.40625 -2.484375 C 4.15625 -2.242188 4.898438 -2.125 5.640625 -2.125 C 6.460938 -2.125 7.070312 -2.242188 7.46875 -2.484375 C 7.863281 -2.734375 8.0625 -3.0625 8.0625 -3.46875 C 8.0625 -3.757812 7.941406 -4.003906 7.703125 -4.203125 C 7.472656 -4.398438 7.175781 -4.554688 6.8125 -4.671875 C 6.445312 -4.796875 5.953125 -4.929688 5.328125 -5.078125 C 4.367188 -5.304688 3.582031 -5.535156 2.96875 -5.765625 C 2.363281 -5.992188 1.84375 -6.359375 1.40625 -6.859375 C 0.96875 -7.359375 0.75 -8.03125 0.75 -8.875 C 0.75 -9.601562 0.945312 -10.257812 1.34375 -10.84375 C 1.738281 -11.4375 2.332031 -11.90625 3.125 -12.25 C 3.925781 -12.601562 4.898438 -12.78125 6.046875 -12.78125 C 6.847656 -12.78125 7.628906 -12.679688 8.390625 -12.484375 C 9.160156 -12.296875 9.832031 -12.023438 10.40625 -11.671875 L 9.515625 -9.46875 C 8.359375 -10.125 7.195312 -10.453125 6.03125 -10.453125 C 5.21875 -10.453125 4.613281 -10.316406 4.21875 -10.046875 C 3.832031 -9.785156 3.640625 -9.441406 3.640625 -9.015625 C 3.640625 -8.578125 3.863281 -8.253906 4.3125 -8.046875 C 4.757812 -7.835938 5.445312 -7.632812 6.375 -7.4375 C 7.332031 -7.207031 8.113281 -6.976562 8.71875 -6.75 C 9.332031 -6.519531 9.859375 -6.160156 10.296875 -5.671875 C 10.734375 -5.179688 10.953125 -4.519531 10.953125 -3.6875 C 10.953125 -2.96875 10.75 -2.3125 10.34375 -1.71875 C 9.945312 -1.125 9.347656 -0.648438 8.546875 -0.296875 C 7.742188 0.046875 6.769531 0.21875 5.625 0.21875 Z M 5.625 0.21875 "/></g></g><g style="fill:#f99f81;fill-opacity:1;"><g transform="translate(112.332916, 170.822813)"><path style="stroke:none" d="M 7.578125 0.21875 C 6.273438 0.21875 5.097656 -0.0625 4.046875 -0.625 C 3.003906 -1.1875 2.1875 -1.960938 1.59375 -2.953125 C 1 -3.941406 0.703125 -5.050781 0.703125 -6.28125 C 0.703125 -7.507812 1 -8.617188 1.59375 -9.609375 C 2.1875 -10.597656 3.003906 -11.375 4.046875 -11.9375 C 5.097656 -12.5 6.273438 -12.78125 7.578125 -12.78125 C 8.878906 -12.78125 10.050781 -12.5 11.09375 -11.9375 C 12.132812 -11.375 12.953125 -10.597656 13.546875 -9.609375 C 14.148438 -8.617188 14.453125 -7.507812 14.453125 -6.28125 C 14.453125 -5.050781 14.148438 -3.941406 13.546875 -2.953125 C 12.953125 -1.960938 12.132812 -1.1875 11.09375 -0.625 C 10.050781 -0.0625 8.878906 0.21875 7.578125 0.21875 Z M 7.578125 -2.265625 C 8.316406 -2.265625 8.984375 -2.429688 9.578125 -2.765625 C 10.179688 -3.109375 10.65625 -3.582031 11 -4.1875 C 11.34375 -4.800781 11.515625 -5.5 11.515625 -6.28125 C 11.515625 -7.0625 11.34375 -7.753906 11 -8.359375 C 10.65625 -8.972656 10.179688 -9.453125 9.578125 -9.796875 C 8.984375 -10.140625 8.316406 -10.3125 7.578125 -10.3125 C 6.835938 -10.3125 6.164062 -10.140625 5.5625 -9.796875 C 4.96875 -9.453125 4.5 -8.972656 4.15625 -8.359375 C 3.8125 -7.753906 3.640625 -7.0625 3.640625 -6.28125 C 3.640625 -5.5 3.8125 -4.800781 4.15625 -4.1875 C 4.5 -3.582031 4.96875 -3.109375 5.5625 -2.765625 C 6.164062 -2.429688 6.835938 -2.265625 7.578125 -2.265625 Z M 7.578125 -2.265625 "/></g></g><g style="fill:#f99f81;fill-opacity:1;"><g transform="translate(137.44568, 170.822813)"><path style="stroke:none" d="M 1.484375 -12.5625 L 4.40625 -12.5625 L 4.40625 -2.375 L 10.703125 -2.375 L 10.703125 0 L 1.484375 0 Z M 1.484375 -12.5625 "/></g></g><g style="fill:#f99f81;fill-opacity:1;"><g transform="translate(158.250327, 170.822813)"><path style="stroke:none" d="M 7.078125 0.21875 C 5.273438 0.21875 3.875 -0.273438 2.875 -1.265625 C 1.875 -2.265625 1.375 -3.6875 1.375 -5.53125 L 1.375 -12.5625 L 4.296875 -12.5625 L 4.296875 -5.640625 C 4.296875 -3.390625 5.226562 -2.265625 7.09375 -2.265625 C 8 -2.265625 8.691406 -2.535156 9.171875 -3.078125 C 9.648438 -3.617188 9.890625 -4.472656 9.890625 -5.640625 L 9.890625 -12.5625 L 12.765625 -12.5625 L 12.765625 -5.53125 C 12.765625 -3.6875 12.265625 -2.265625 11.265625 -1.265625 C 10.265625 -0.273438 8.867188 0.21875 7.078125 0.21875 Z M 7.078125 0.21875 "/></g></g><g style="fill:#f99f81;fill-opacity:1;"><g transform="translate(182.357864, 170.822813)"><path style="stroke:none" d="M 4.09375 -10.203125 L 0.078125 -10.203125 L 0.078125 -12.5625 L 11.015625 -12.5625 L 11.015625 -10.203125 L 7 -10.203125 L 7 0 L 4.09375 0 Z M 4.09375 -10.203125 "/></g></g><g style="fill:#f99f81;fill-opacity:1;"><g transform="translate(203.413818, 170.822813)"><path style="stroke:none" d="M 1.484375 -12.5625 L 4.40625 -12.5625 L 4.40625 0 L 1.484375 0 Z M 1.484375 -12.5625 "/></g></g><g style="fill:#f99f81;fill-opacity:1;"><g transform="translate(219.264131, 170.822813)"><path style="stroke:none" d="M 7.578125 0.21875 C 6.273438 0.21875 5.097656 -0.0625 4.046875 -0.625 C 3.003906 -1.1875 2.1875 -1.960938 1.59375 -2.953125 C 1 -3.941406 0.703125 -5.050781 0.703125 -6.28125 C 0.703125 -7.507812 1 -8.617188 1.59375 -9.609375 C 2.1875 -10.597656 3.003906 -11.375 4.046875 -11.9375 C 5.097656 -12.5 6.273438 -12.78125 7.578125 -12.78125 C 8.878906 -12.78125 10.050781 -12.5 11.09375 -11.9375 C 12.132812 -11.375 12.953125 -10.597656 13.546875 -9.609375 C 14.148438 -8.617188 14.453125 -7.507812 14.453125 -6.28125 C 14.453125 -5.050781 14.148438 -3.941406 13.546875 -2.953125 C 12.953125 -1.960938 12.132812 -1.1875 11.09375 -0.625 C 10.050781 -0.0625 8.878906 0.21875 7.578125 0.21875 Z M 7.578125 -2.265625 C 8.316406 -2.265625 8.984375 -2.429688 9.578125 -2.765625 C 10.179688 -3.109375 10.65625 -3.582031 11 -4.1875 C 11.34375 -4.800781 11.515625 -5.5 11.515625 -6.28125 C 11.515625 -7.0625 11.34375 -7.753906 11 -8.359375 C 10.65625 -8.972656 10.179688 -9.453125 9.578125 -9.796875 C 8.984375 -10.140625 8.316406 -10.3125 7.578125 -10.3125 C 6.835938 -10.3125 6.164062 -10.140625 5.5625 -9.796875 C 4.96875 -9.453125 4.5 -8.972656 4.15625 -8.359375 C 3.8125 -7.753906 3.640625 -7.0625 3.640625 -6.28125 C 3.640625 -5.5 3.8125 -4.800781 4.15625 -4.1875 C 4.5 -3.582031 4.96875 -3.109375 5.5625 -2.765625 C 6.164062 -2.429688 6.835938 -2.265625 7.578125 -2.265625 Z M 7.578125 -2.265625 "/></g></g><g style="fill:#f99f81;fill-opacity:1;"><g transform="translate(244.376895, 170.822813)"><path style="stroke:none" d="M 13.015625 -12.5625 L 13.015625 0 L 10.625 0 L 4.359375 -7.625 L 4.359375 0 L 1.484375 0 L 1.484375 -12.5625 L 3.890625 -12.5625 L 10.140625 -4.9375 L 10.140625 -12.5625 Z M 13.015625 -12.5625 "/></g></g><g style="fill:#f99f81;fill-opacity:1;"><g transform="translate(268.843439, 170.822813)"><path style="stroke:none" d="M 5.625 0.21875 C 4.625 0.21875 3.660156 0.0820312 2.734375 -0.1875 C 1.804688 -0.457031 1.0625 -0.804688 0.5 -1.234375 L 1.484375 -3.421875 C 2.023438 -3.035156 2.664062 -2.722656 3.40625 -2.484375 C 4.15625 -2.242188 4.898438 -2.125 5.640625 -2.125 C 6.460938 -2.125 7.070312 -2.242188 7.46875 -2.484375 C 7.863281 -2.734375 8.0625 -3.0625 8.0625 -3.46875 C 8.0625 -3.757812 7.941406 -4.003906 7.703125 -4.203125 C 7.472656 -4.398438 7.175781 -4.554688 6.8125 -4.671875 C 6.445312 -4.796875 5.953125 -4.929688 5.328125 -5.078125 C 4.367188 -5.304688 3.582031 -5.535156 2.96875 -5.765625 C 2.363281 -5.992188 1.84375 -6.359375 1.40625 -6.859375 C 0.96875 -7.359375 0.75 -8.03125 0.75 -8.875 C 0.75 -9.601562 0.945312 -10.257812 1.34375 -10.84375 C 1.738281 -11.4375 2.332031 -11.90625 3.125 -12.25 C 3.925781 -12.601562 4.898438 -12.78125 6.046875 -12.78125 C 6.847656 -12.78125 7.628906 -12.679688 8.390625 -12.484375 C 9.160156 -12.296875 9.832031 -12.023438 10.40625 -11.671875 L 9.515625 -9.46875 C 8.359375 -10.125 7.195312 -10.453125 6.03125 -10.453125 C 5.21875 -10.453125 4.613281 -10.316406 4.21875 -10.046875 C 3.832031 -9.785156 3.640625 -9.441406 3.640625 -9.015625 C 3.640625 -8.578125 3.863281 -8.253906 4.3125 -8.046875 C 4.757812 -7.835938 5.445312 -7.632812 6.375 -7.4375 C 7.332031 -7.207031 8.113281 -6.976562 8.71875 -6.75 C 9.332031 -6.519531 9.859375 -6.160156 10.296875 -5.671875 C 10.734375 -5.179688 10.953125 -4.519531 10.953125 -3.6875 C 10.953125 -2.96875 10.75 -2.3125 10.34375 -1.71875 C 9.945312 -1.125 9.347656 -0.648438 8.546875 -0.296875 C 7.742188 0.046875 6.769531 0.21875 5.625 0.21875 Z M 5.625 0.21875 "/></g></g></g></svg>